# xmcd
#
# Track frame offsets:
#	182
#	18917
#	37125
#	57842
#	75710
#	91620
#	117297
#	136125
#	151027
#	166480
#	188062
#	201590
#	219865
#	235985
#
# Disc length: 3525
#
# Revision: 1
# Processed by: cddbd v1.5.1PL0 Copyright (c) Steve Scherf et al.
# Submitted via: dBpowerAMP V4.0
# Normalized: r0:TRMNUM
#
DISCID=b00dc30e
DTITLE=The Backsliders - Poverty Deluxe
DYEAR=1999
DGENRE=Blues
TTITLE0=Jack
TTITLE1=Big Trouble
TTITLE2=House On The Corner
TTITLE3=Radio Waves
TTITLE4=New Love In Vain
TTITLE5=Whiite Cross
TTITLE6=Walk Talk
TTITLE7=Bound To Love Me Some
TTITLE8=One Time
TTITLE9=Emily
TTITLE10=Tonal Dilemma
TTITLE11=The Little Boy
TTITLE12=Calypso Telephone
TTITLE13=She Did You A Favour
EXTD=
EXTT0=
EXTT1=
EXTT2=
EXTT3=
EXTT4=
EXTT5=
EXTT6=
EXTT7=
EXTT8=
EXTT9=
EXTT10=
EXTT11=
EXTT12=
EXTT13=
PLAYORDER=
